{"asset":{"version":"2.0","generator":"Blockbench 4.11.2 glTF exporter"},"scenes":[{"nodes":[1],"name":"blockbench_export"}],"scene":0,"nodes":[{"translation":[0,1.5,0],"name":"sphere","mesh":0},{"children":[0]}],"bufferViews":[{"buffer":0,"byteOffset":0,"byteLength":2688,"target":34962,"byteStride":12},{"buffer":0,"byteOffset":2688,"byteLength":2688,"target":34962,"byteStride":12},{"buffer":0,"byteOffset":5376,"byteLength":1792,"target":34962,"byteStride":8},{"buffer":0,"byteOffset":7168,"byteLength":576,"target":34963}],"buffers":[{"byteLength":7744,"uri":"data:application/octet-stream;base64,"}],"accessors":[{"bufferView":0,"componentType":5126,"count":224,"max":[0.3333331346511841,0.5,0.3333331346511841],"min":[-0.3333331346511841,-1.5,-0.3333331346511841],"type":"VEC3"},{"bufferView":1,"componentType":5126,"count":224,"max":[0.9951305985450745,0.9238794445991516,0.9951305985450745],"min":[-0.9951305985450745,-0.9981652498245239,-0.9951305985450745],"type":"VEC3"},{"bufferView":2,"componentType":5126,"count":224,"max":[0.20711250603199005,0.19133752584457397],"min":[0,0],"type":"VEC2"},{"bufferView":3,"componentType":5123,"count":288,"max":[223],"min":[0],"type":"SCALAR"}],"materials":[{"pbrMetallicRoughness":{"metallicFactor":0,"roughnessFactor":1},"alphaMode":"MASK","alphaCutoff":0.05,"doubleSided":true}],"meshes":[{"primitives":[{"mode":4,"attributes":{"POSITION":0,"NORMAL":1,"TEXCOORD_0":2},"indices":3,"material":0}]}]}